<svg xmlns="http://www.w3.org/2000/svg" xmlns:xlink="http://www.w3.org/1999/xlink" width="500" zoomAndPan="magnify" viewBox="0 0 375 374.999991" height="500" preserveAspectRatio="xMidYMid meet" version="1.0"><defs><clipPath id="e09d1179cd"><path d="M 82.839844 83.027344 L 292.089844 83.027344 L 292.089844 292.089844 L 82.839844 292.089844 Z M 82.839844 83.027344 " clip-rule="nonzero"/></clipPath><clipPath id="f85c829c0c"><path d="M 66 118.851562 L 309.335938 118.851562 L 309.335938 256.101562 L 66 256.101562 Z M 66 118.851562 " clip-rule="nonzero"/></clipPath></defs><g clip-path="url(#e09d1179cd)"><path fill="#00bf63" d="M 187.464844 292.160156 C 129.804688 292.160156 82.839844 245.195312 82.839844 187.464844 C 82.839844 129.730469 129.804688 82.839844 187.464844 82.839844 C 245.125 82.839844 292.089844 129.804688 292.089844 187.464844 C 292.160156 245.195312 245.195312 292.160156 187.464844 292.160156 Z M 187.464844 84.609375 C 130.722656 84.609375 84.609375 130.722656 84.609375 187.464844 C 84.609375 244.203125 130.792969 290.386719 187.464844 290.386719 C 244.132812 290.386719 290.386719 244.203125 290.386719 187.464844 C 290.386719 130.722656 244.203125 84.609375 187.464844 84.609375 Z M 187.464844 84.609375 " fill-opacity="1" fill-rule="nonzero"/></g><g clip-path="url(#f85c829c0c)"><path fill="#00bf63" d="M 293.804688 161.078125 C 300.449219 163.734375 309.417969 163.734375 309.417969 171.050781 C 309.417969 188.320312 238 198.621094 235.339844 198.621094 L 211.757812 250.113281 C 210.09375 254.097656 207.769531 255.097656 205.105469 255.425781 L 197.460938 256.089844 L 197.460938 220.21875 L 182.519531 206.925781 C 180.855469 206.925781 171.214844 208.578125 151.292969 208.578125 C 128.039062 208.578125 121.726562 207.589844 120.0625 207.589844 L 117.410156 218.882812 C 117.074219 220.882812 111.425781 221.875 110.433594 220.546875 L 98.472656 204.597656 C 96.148438 204.597656 90.167969 203.941406 90.167969 201.941406 C 90.167969 199.292969 91.164062 198.292969 92.492188 197.628906 L 67.246094 174.039062 C 65.589844 172.382812 71.570312 169.0625 76.878906 171.707031 L 101.464844 183.335938 L 99.800781 164.066406 L 105.449219 163.082031 C 107.441406 162.746094 111.765625 165.742188 113.089844 167.058594 L 130.371094 185.664062 L 160.265625 180.015625 L 146.308594 165.742188 L 80.875 124.546875 L 86.515625 120.222656 C 86.515625 120.222656 87.847656 118.894531 92.496094 118.894531 L 222.382812 169.394531 L 262.914062 161.753906 C 264.570312 161.417969 271.550781 157.433594 279.855469 157.433594 C 288.828125 157.433594 288.828125 159.089844 293.8125 161.078125 " fill-opacity="1" fill-rule="nonzero"/></g></svg>